<mxfile host="app.diagrams.net" modified="2022-03-08T01:48:17.545Z" agent="5.0 (Macintosh; Intel Mac OS X 10_15_7) AppleWebKit/537.36 (KHTML, like Gecko) Chrome/98.0.4758.80 Safari/537.36" etag="xWd5cOLyal2ewX6P70X9" version="16.5.5" type="github">
  <diagram id="MWg-5vMggp_8x-Vfk4sk" name="第 1 页">
    <mxGraphModel dx="1306" dy="712" grid="1" gridSize="10" guides="1" tooltips="1" connect="1" arrows="1" fold="1" page="1" pageScale="1" pageWidth="827" pageHeight="1169" math="0" shadow="0">
      <root>
        <mxCell id="0" />
        <mxCell id="1" parent="0" />
        <mxCell id="CA3GULTLqWzyWjhm6pqT-1" value="GP" style="shape=cylinder3;whiteSpace=wrap;html=1;boundedLbl=1;backgroundOutline=1;size=15;fillColor=#d5e8d4;strokeColor=#82b366;" vertex="1" parent="1">
          <mxGeometry x="140" y="840" width="60" height="80" as="geometry" />
        </mxCell>
        <mxCell id="CA3GULTLqWzyWjhm6pqT-2" value="GP" style="shape=cylinder3;whiteSpace=wrap;html=1;boundedLbl=1;backgroundOutline=1;size=15;fillColor=#d5e8d4;strokeColor=#82b366;" vertex="1" parent="1">
          <mxGeometry x="230" y="840" width="60" height="80" as="geometry" />
        </mxCell>
        <mxCell id="CA3GULTLqWzyWjhm6pqT-3" value="CK" style="shape=cylinder3;whiteSpace=wrap;html=1;boundedLbl=1;backgroundOutline=1;size=15;fillColor=#d5e8d4;strokeColor=#82b366;" vertex="1" parent="1">
          <mxGeometry x="450" y="840" width="60" height="80" as="geometry" />
        </mxCell>
        <mxCell id="CA3GULTLqWzyWjhm6pqT-4" value="CK" style="shape=cylinder3;whiteSpace=wrap;html=1;boundedLbl=1;backgroundOutline=1;size=15;fillColor=#d5e8d4;strokeColor=#82b366;" vertex="1" parent="1">
          <mxGeometry x="530" y="840" width="60" height="80" as="geometry" />
        </mxCell>
        <mxCell id="CA3GULTLqWzyWjhm6pqT-5" value="MySql" style="shape=cylinder3;whiteSpace=wrap;html=1;boundedLbl=1;backgroundOutline=1;size=15;fillColor=#d5e8d4;strokeColor=#82b366;" vertex="1" parent="1">
          <mxGeometry x="650" y="840" width="60" height="80" as="geometry" />
        </mxCell>
        <mxCell id="CA3GULTLqWzyWjhm6pqT-6" value="Vertical Container" style="swimlane;" vertex="1" parent="1">
          <mxGeometry x="60" y="120" width="700" height="280" as="geometry" />
        </mxCell>
        <mxCell id="CA3GULTLqWzyWjhm6pqT-7" value="bi-data-read" style="rounded=1;whiteSpace=wrap;html=1;" vertex="1" parent="CA3GULTLqWzyWjhm6pqT-6">
          <mxGeometry x="70" y="70" width="120" height="60" as="geometry" />
        </mxCell>
      </root>
    </mxGraphModel>
  </diagram>
</mxfile>
